{
  "title": "Fresh Off the Boat Season 2 S02 Complete 720p ~{KiNg}",
  "uid": 14805986,
  "size": 6535451925,
  "categoryP": "video",
  "categoryS": "hd___tv_shows",
  "magnet": "?xt=urn:btih:4422387ebddf72345ce1a020c26e8970eb349217&amp;dn=Fresh+Off+the+Boat+Season+2+S02+Complete+720p+%7E%7BKiNg%7D&amp;tr=udp%3A%2F%2Ftracker.leechers-paradise.org%3A6969&amp;tr=udp%3A%2F%2Fzer0day.ch%3A1337&amp;tr=udp%3A%2F%2Fopen.demonii.com%3A1337&amp;tr=udp%3A%2F%2Ftracker.coppersurfer.tk%3A6969&amp;tr=udp%3A%2F%2Fexodus.desync.com%3A6969",
  "seeders": 79,
  "leechers": 24,
  "uploader": "Uplaoderking",
  "files": 24,
  "time": 1465165167,
  "description": "General\r\nFormat : Matroska\r\nFormat version : Version 4 / Version 2\r\nFile size : 260 MiB\r\nDuration : 20mn 59s\r\nOverall bit rate : 1 730 Kbps\r\n\r\nVideo\r\nID : 1\r\nFormat : AVC\r\nFormat/Info : Advanced Video Codec\r\nFormat profile :   \r\nFormat settings, CABAC : Yes\r\nFormat settings, ReFrames : 4 frames\r\nCodec ID : V_MPEG4/ISO/AVC\r\nDuration : 20mn 59s\r\nBit rate : 1 656 Kbps\r\nWidth : 1 280 pixels\r\nHeight : 716 pixels\r\nDisplay aspect ratio : 16:9\r\nFrame rate mode : Constant\r\nFrame rate : 23.976 (24000/1001) fps\r\nColor space : YUV\r\nChroma subsampling : 4:2:0\r\nBit depth : 8 bits\r\nScan type : Progressive\r\nBits/(Pixel*Frame) : 0.075\r\nStream size : 249 MiB (96%)\r\n\r\nAudio\r\nID : 2\r\nFormat : AAC\r\nFormat/Info : Advanced Audio Codec\r\nFormat profile : LC\r\nCodec ID : A_AAC\r\nDuration : 20mn 59s\r\nBit rate : 72.0 Kbps\r\nChannel(s) : 2 channels\r\nChannel positions : Front: L R\r\nSampling rate : 48.0 KHz\r\nFrame rate : 46.875 fps (1024 spf)\r\nCompression mode : Lossy\r\nDelay relative to video : 9ms\r\nStream size : 10.8 MiB (4%)\r\nLanguage : English\r\nDefault : No\r\nForced : No",
  "parsed": {
    "xt": "urn:btih:4422387ebddf72345ce1a020c26e8970eb349217",
    "dn": "Fresh Off the Boat Season 2 S02 Complete 720p ~{KiNg}",
    "tr": [
      "udp://exodus.desync.com:6969",
      "udp://open.demonii.com:1337",
      "udp://tracker.coppersurfer.tk:6969",
      "udp://tracker.leechers-paradise.org:6969",
      "udp://zer0day.ch:1337"
    ],
    "infoHash": "4422387ebddf72345ce1a020c26e8970eb349217",
    "infoHashBuffer": {
      "type": "Buffer",
      "data": [
        68,
        34,
        56,
        126,
        189,
        223,
        114,
        52,
        92,
        225,
        160,
        32,
        194,
        110,
        137,
        112,
        235,
        52,
        146,
        23
      ]
    },
    "name": "Fresh Off the Boat Season 2 S02 Complete 720p ~{KiNg}",
    "announce": [
      "udp://exodus.desync.com:6969",
      "udp://open.demonii.com:1337",
      "udp://tracker.coppersurfer.tk:6969",
      "udp://tracker.leechers-paradise.org:6969",
      "udp://zer0day.ch:1337"
    ],
    "urlList": []
  },
  "previous": 100,
  "peers": 100,
  "last_updated": "2016-12-26T22:43:16.363Z"
}